<svg xmlns="http://www.w3.org/2000/svg" width="480" zoomAndPan="magnify" viewBox="0 0 360 359.999987" height="480" preserveAspectRatio="xMidYMid meet" version="1.0"><rect x="-36" width="432" y="-35.999999" height="431.999984" fill-opacity="1" /><rect x="-36" width="432" y="-35.999999" height="431.999984" fill-opacity="1" /><path fill="#d3490b" d="M 62.351562 317.441406 C 67.589844 311.550781 74.148438 306.882812 81.472656 303.953125 C 88.949219 300.960938 96.820312 300.316406 104.769531 299.699219 C 112.402344 299.109375 120.269531 298.316406 127.105469 294.585938 C 132.988281 291.378906 137.554688 286.246094 140.871094 280.488281 C 144.324219 274.5 146.546875 267.84375 148.066406 261.121094 C 149.6875 253.933594 150.691406 246.355469 154.210938 239.773438 C 160.558594 227.886719 174.148438 225.765625 185.816406 221.917969 C 191.273438 220.117188 196.785156 217.800781 200.917969 213.675781 C 202.109375 212.480469 203.148438 211.164062 204.03125 209.722656 C 204.910156 208.28125 205.609375 206.757812 206.128906 205.152344 C 206.648438 203.542969 206.972656 201.898438 207.101562 200.214844 C 207.234375 198.53125 207.164062 196.851562 206.894531 195.1875 C 206.515625 192.851562 205.679688 190.414062 204.820312 188.214844 C 204.238281 186.722656 203.21875 185.355469 202.433594 183.953125 C 201.417969 182.136719 200.453125 180.292969 199.542969 178.417969 C 198.027344 175.285156 196.636719 172.050781 195.714844 168.691406 C 195.21875 166.890625 194.21875 163.683594 195.464844 161.960938 C 197.003906 159.835938 201.160156 161.6875 202.714844 162.84375 C 205.277344 164.75 207.046875 170.003906 202.78125 170.945312 C 200.253906 171.5 197.320312 170.832031 194.886719 170.082031 C 191.996094 169.195312 189.738281 167.316406 186.683594 166.808594 C 185.273438 166.574219 183.902344 166.566406 182.476562 166.679688 C 181.054688 166.792969 179.925781 166.6875 178.773438 165.746094 C 176.816406 164.144531 176.929688 161.167969 174.960938 159.632812 C 173.113281 158.199219 171.097656 159.132812 169.320312 160.132812 C 166.953125 161.464844 163.667969 162.660156 161.03125 161.273438 C 156.96875 159.136719 162.84375 153.503906 164.859375 152.097656 C 167.757812 150.074219 171.09375 148.796875 174.359375 147.507812 C 181.671875 144.621094 188.492188 140.90625 194.621094 135.957031 C 200.960938 130.839844 205.96875 124.820312 208.417969 116.945312 C 210.972656 108.730469 211.773438 99.757812 211.640625 91.1875 C 211.574219 86.792969 211.109375 82.453125 210.554688 78.097656 C 210.03125 73.988281 210.003906 69.941406 212.726562 66.574219 C 216.324219 62.128906 222.296875 59.699219 224.613281 54.214844 C 226.058594 50.792969 225.195312 46.574219 228.941406 44.527344 C 230.339844 43.765625 231.882812 43.320312 233.304688 42.613281 C 234.84375 41.84375 236.117188 40.730469 237.167969 39.375 C 238.191406 38.050781 238.980469 36.574219 239.679688 35.058594 C 240.355469 33.589844 241.34375 30.996094 243.164062 30.632812 C 245.40625 30.183594 245.613281 34.039062 245.671875 35.4375 C 245.753906 37.386719 245.472656 39.328125 245.007812 41.21875 C 244.035156 45.160156 242.339844 48.867188 241.019531 52.691406 C 239.636719 56.699219 238.898438 60.761719 238.988281 65.011719 C 239.167969 73.4375 241.882812 81.582031 242.023438 90.011719 C 242.152344 97.703125 239.984375 105.105469 233.421875 109.675781 C 230.4375 111.75 227.097656 113.222656 223.867188 114.859375 C 220.394531 116.617188 217.234375 118.832031 213.890625 120.8125 C 210.578125 122.773438 206.847656 124.460938 202.902344 123.875 C 198.980469 123.292969 195.65625 120.84375 192.195312 119.09375 C 185.035156 115.460938 176.566406 116.074219 169.476562 112.34375 C 166.046875 110.542969 163.332031 107.824219 162.390625 103.980469 C 161.511719 100.386719 161.597656 96.742188 159.652344 93.46875 C 157.980469 90.65625 155.457031 88.359375 154.101562 85.359375 C 153.386719 83.777344 153.226562 82.125 153.761719 80.460938 C 154.285156 78.832031 155.269531 77.386719 155.875 75.789062 C 156.429688 74.320312 156.554688 72.816406 156.171875 71.292969 C 155.722656 69.496094 154.683594 67.910156 154.199219 66.128906 C 153.183594 62.390625 156.476562 60.4375 158.585938 57.964844 C 160.804688 55.367188 160.953125 52.480469 159.996094 49.289062 C 159.460938 47.507812 158.714844 45.78125 158.390625 43.945312 C 158.226562 43.027344 157.894531 40.898438 159.429688 41.046875 C 160.367188 41.132812 161.277344 42.070312 161.84375 42.742188 C 163.117188 44.257812 164.144531 46.0625 165.273438 47.691406 C 166.621094 49.632812 167.976562 51.570312 169.347656 53.5 C 171.984375 57.210938 174.660156 60.890625 177.378906 64.539062 C 182.628906 71.597656 188.035156 78.542969 193.589844 85.375 C 198.722656 91.683594 204.222656 98.117188 211.703125 101.703125 C 218.214844 104.824219 225.164062 105.027344 231.867188 102.417969 C 238.074219 100.003906 243.488281 96.042969 249.304688 92.878906 C 252.332031 91.230469 255.488281 89.785156 258.855469 88.980469 C 262.5 88.117188 266.871094 87.726562 268.679688 91.714844 C 269.894531 94.394531 270.621094 97.09375 272.867188 99.15625 C 275.085938 101.191406 277.945312 102.296875 280.839844 102.964844 L 281.25 101.480469 C 278.722656 101.0625 276.0625 101.035156 273.683594 102.113281 C 270.960938 103.351562 269.167969 106.074219 267.515625 108.457031 C 263.550781 114.171875 262.238281 121.058594 258.71875 126.980469 C 257.070312 129.730469 255.027344 132.152344 252.597656 134.246094 C 250.167969 136.339844 247.472656 137.996094 244.507812 139.21875 C 237.921875 141.914062 230.6875 141.574219 223.855469 143.21875 C 219.976562 144.15625 216.328125 145.914062 212.40625 146.675781 C 208.648438 147.40625 205.441406 146.34375 201.867188 145.359375 C 200.914062 145.09375 200.503906 146.578125 201.457031 146.839844 C 204.125 147.578125 206.828125 148.585938 209.628906 148.527344 C 213.140625 148.464844 216.488281 147.1875 219.769531 146.066406 C 223.316406 144.855469 226.871094 144.085938 230.589844 143.617188 C 234.074219 143.179688 237.589844 142.847656 241.003906 141.976562 C 246.847656 140.496094 252.207031 137.25 256.28125 132.808594 C 260.703125 127.976562 262.613281 122.074219 265.082031 116.152344 C 266.671875 112.359375 268.804688 108.90625 271.476562 105.785156 C 273.886719 102.957031 277.304688 102.382812 280.839844 102.972656 C 281.792969 103.128906 282.230469 101.714844 281.25 101.488281 C 278.125 100.769531 274.984375 99.519531 272.90625 96.96875 C 270.800781 94.390625 270.738281 90.460938 268.0625 88.332031 C 265.242188 86.085938 261.078125 86.816406 257.859375 87.652344 C 254.519531 88.523438 251.363281 90 248.347656 91.652344 C 242.164062 95.035156 236.367188 99.433594 229.589844 101.597656 C 221.460938 104.195312 213.382812 101.898438 206.722656 96.820312 C 199.476562 91.292969 193.953125 83.496094 188.371094 76.390625 C 182.507812 68.933594 176.820312 61.335938 171.308594 53.605469 C 168.601562 49.8125 166.089844 45.835938 163.292969 42.105469 C 161.980469 40.363281 158.457031 37.894531 157.023438 40.910156 C 156.3125 42.402344 156.855469 44.421875 157.285156 45.917969 C 157.847656 47.867188 158.714844 49.757812 159.003906 51.777344 C 159.601562 55.925781 156.214844 57.746094 153.980469 60.585938 C 151.820312 63.332031 152.402344 66.097656 153.703125 69.089844 C 154.550781 71.039062 155.242188 72.867188 154.53125 74.980469 C 153.945312 76.738281 152.847656 78.28125 152.277344 80.046875 C 150.011719 87.066406 158.316406 91.648438 159.78125 97.875 C 160.695312 101.769531 160.578125 105.769531 163.109375 109.101562 C 165.195312 111.851562 168.234375 113.660156 171.414062 114.886719 C 175.308594 116.390625 179.492188 116.882812 183.550781 117.765625 C 185.808594 118.253906 188.0625 118.855469 190.171875 119.808594 C 192.019531 120.636719 193.75 121.679688 195.523438 122.640625 C 198.882812 124.464844 202.410156 125.902344 206.3125 125.398438 C 210.105469 124.910156 213.5 122.902344 216.679688 120.886719 C 220.015625 118.769531 223.351562 116.804688 226.898438 115.058594 C 230.3125 113.371094 233.769531 111.644531 236.628906 109.085938 C 242.269531 104.035156 243.804688 96.371094 243.542969 89.101562 C 243.214844 80.097656 240.097656 71.363281 240.570312 62.304688 C 241.011719 53.71875 246.292969 46.4375 247.132812 37.96875 C 247.390625 35.382812 247.542969 30.105469 244.320312 29.15625 C 241.097656 28.210938 239.230469 32.4375 238.167969 34.667969 C 237.332031 36.433594 236.355469 38.183594 234.953125 39.566406 C 233.503906 40.992188 231.671875 41.652344 229.835938 42.414062 C 228.347656 43.039062 226.882812 43.773438 225.851562 45.058594 C 224.765625 46.417969 224.40625 48.128906 224.125 49.804688 C 223.832031 51.519531 223.535156 53.171875 222.660156 54.699219 C 221.871094 56.074219 220.785156 57.238281 219.628906 58.3125 C 217.304688 60.464844 214.640625 62.234375 212.464844 64.542969 C 210.058594 67.097656 208.761719 70.105469 208.699219 73.636719 C 208.621094 78.191406 209.714844 82.761719 209.96875 87.316406 C 210.492188 96.695312 209.832031 106.488281 207.226562 115.554688 C 205.980469 119.886719 204.058594 123.925781 201.203125 127.433594 C 198.425781 130.847656 195.035156 133.800781 191.511719 136.425781 C 188.019531 139.027344 184.320312 141.289062 180.414062 143.210938 C 176.984375 144.898438 173.386719 146.15625 169.882812 147.667969 C 166.738281 149.023438 163.585938 150.667969 161.214844 153.199219 C 159.335938 155.199219 156.882812 158.90625 158.992188 161.554688 C 160.734375 163.738281 164.535156 163.636719 166.941406 162.902344 C 168.195312 162.519531 169.320312 161.878906 170.460938 161.242188 C 171.402344 160.71875 172.480469 160.09375 173.570312 160.574219 C 174.800781 161.113281 175.152344 162.6875 175.636719 163.8125 C 176.191406 165.101562 176.917969 166.273438 178.0625 167.117188 C 180.3125 168.773438 182.558594 167.953125 185.117188 168.144531 C 187.019531 168.273438 188.804688 168.796875 190.476562 169.707031 C 191.777344 170.425781 193.042969 171.117188 194.476562 171.554688 C 196.949219 172.3125 199.761719 172.871094 202.34375 172.550781 C 205.1875 172.199219 207.179688 170.296875 206.886719 167.296875 C 206.578125 164.109375 204.410156 161.65625 201.546875 160.40625 C 199.554688 159.542969 196.4375 158.871094 194.652344 160.550781 C 193.226562 161.882812 193.324219 164.171875 193.566406 165.941406 C 194.003906 169.15625 195.171875 172.261719 196.425781 175.234375 C 198 178.929688 199.796875 182.511719 201.824219 185.980469 C 202.648438 187.410156 203.359375 188.679688 203.882812 190.238281 C 204.210938 191.207031 204.558594 192.167969 204.851562 193.148438 C 206.03125 197.109375 205.863281 201.40625 204.488281 205.292969 C 199.816406 218.535156 183.75 220.566406 172.230469 224.492188 C 166.503906 226.441406 160.785156 229.058594 156.648438 233.609375 C 151.519531 239.246094 149.554688 246.804688 147.996094 254.0625 C 144.941406 268.292969 140.933594 284.359375 127.601562 292.515625 C 120.304688 296.976562 111.617188 297.632812 103.300781 298.265625 C 95.148438 298.882812 87.179688 299.796875 79.605469 303.070312 C 72.511719 306.144531 66.398438 310.574219 61.261719 316.355469 C 60.605469 317.09375 61.691406 318.183594 62.351562 317.441406 Z M 62.351562 317.441406 " fill-opacity="1" fill-rule="nonzero" /></svg>